<svg xmlns="http://www.w3.org/2000/svg" version="1.1" xmlns:xlink="http://www.w3.org/1999/xlink" xmlns:svgjs="http://svgjs.dev/svgjs" width="1500" height="1392" viewBox="0 0 1500 1392"><g transform="matrix(1,0,0,1,-0.20309773083033633,0.5646034391735384)"><svg viewBox="0 0 266 247" data-background-color="#ffffff" preserveAspectRatio="xMidYMid meet" height="1392" width="1500" xmlns="http://www.w3.org/2000/svg" xmlns:xlink="http://www.w3.org/1999/xlink"><g id="tight-bounds" transform="matrix(1,0,0,1,0.036015997600571836,-0.09997365579206985)"><svg viewBox="0 0 265.92776050739957 247.2" height="247.2" width="265.92776050739957"><g><svg viewBox="0 0 265.92776050739957 247.2" height="247.2" width="265.92776050739957"><g><svg viewBox="0 0 265.92776050739957 247.2" height="247.2" width="265.92776050739957"><g id="textblocktransform"><svg viewBox="0 0 265.92776050739957 247.2" height="247.2" width="265.92776050739957" id="textblock"><g><svg viewBox="0 0 265.92776050739957 247.2" height="247.2" width="265.92776050739957"><path d="M265.305 53.02C264.055 27.36 260.492 20.227 260.492 20.227 249.553-6.202 235.901-0.506 223.637 3.292 201.983 3.446 180.418 9.091 158.815 12.119 113.47 12.581 67.739 4.986 22.62 23.717 18.381 29.464-4.397 24.846 0.754 56.304 2.104 69.39 7.03 83.913 6.88 95.922 7.555 98.026 8.492 93.202 8.893 96.23 10.293 104.39 12.581 100.541 14.456 105.365 11.843 118.246 13.718 128.971 15.506 140.21 12.356 143.135 8.317 141.749 6.505 151.449 6.317 158.479 5.305 157.145 4.192 156.837 3.379 156.632 1.741 157.402 2.017 159.608 2.954 167.152-1.071 171.514 1.454 178.904-0.284 186.91 2.654 193.838 2.254 202.511 2.204 204.255 2.479 205.744 2.917 206.154 4.854 208.361 2.029 212.672 2.329 217.342 22.207 249.262 43.773 227.195 64.138 241.872 69.426 231.608 65.451 245.516 67.564 243.36 69.214 240.846 70.414 251.263 72.277 245.362 72.564 243.668 72.127 239.665 73.152 240.435 73.69 240.846 74.165 240.743 74.24 238.382 74.352 234.841 73.365 237.048 73.102 235.201 75.94 225.861 75.24 248.081 77.903 247.158 77.778 244.438 77.003 240.538 78.59 241.051 80.166 237.151 80.216 233.918 81.616 242.693 81.666 244.592 81.916 245.926 82.316 246.85 86.691 237.305 91.042 250.237 95.63 245.926 98.443 241.205 101.144 248.492 103.994 246.696 104.994 245.259 106.007 242.693 106.969 247.004 118.759 247.928 131.323 244.079 142.5 247.158 172.367 241.41 204.284 249.518 235.776 241.923 243.202 238.998 250.916 234.841 258.154 231.506 258.154 231.506 264.017 222.371 264.017 181.316S265.268 145.393 265.455 112.703C265.643 80.013 266.518 78.679 265.268 53.02Z" opacity="1" fill="#ea3c12" data-fill-palette-color="tertiary"></path><g transform="matrix(1,0,0,1,55.76832,26.230666666666668)"><svg width="154.39112050739956" viewBox="3.42 -34.16 27.46 34.65" height="194.73866666666666" data-palette-color="#ffffff"><path d="M19.04-34.16L19.04-34.16Q17.11-32.52 17.11-30.19 17.11-27.86 18.4-25.52 19.68-23.19 21.39-21.56 23.1-19.92 24.04-18.96 24.98-17.99 26.16-16.64 27.34-15.28 28.03-14.21L28.03-14.21Q29.71-11.6 29.71-9.63 29.71-7.67 28.89-5.98 28.08-4.3 26.57-2.92 25.07-1.54 22.74-0.63 20.41 0.27 17.6 0.39L17.6 0.39Q18.38-0.73 18.38-1.97 18.38-3.2 17.87-4.48 17.36-5.76 16.31-7.23L16.31-7.23Q14.62-9.59 12.54-11.87 10.45-14.14 9.63-15.11 8.81-16.09 7.79-17.58L7.79-17.58Q5.79-20.46 5.79-23.36 5.79-26.27 7.57-28.76 9.35-31.25 12.39-32.69 15.43-34.13 19.04-34.16ZM27.17-19.41L27.17-19.41Q27.17-21.78 26.32-24.29L26.32-24.29Q24.63-29.2 20.7-32.2L20.7-32.2Q20.75-32.64 21.53-33.25 22.31-33.86 22.83-33.86L22.83-33.86Q24.61-33.86 26.99-33.15 29.37-32.45 30.76-31.79L30.76-31.79Q30.88-31.05 30.88-29.24 30.88-27.42 30.54-24.69 30.2-21.97 29.71-20.39L29.71-20.39Q29.57-20.02 28.67-19.71 27.78-19.41 27.17-19.41ZM15.48-1.73L15.48-1.73Q15.19-0.07 14.58 0.49L14.58 0.49Q12.01 0.49 8.52-0.17 5.03-0.83 3.44-1.86L3.44-1.86Q3.42-2.39 3.42-3.39L3.42-3.39Q3.42-8.15 4.54-12.43L4.54-12.43Q4.64-12.82 5.37-13.42 6.1-14.01 6.69-14.01L6.69-14.01Q7.25-11.33 8.7-8.62 10.16-5.91 12-4.04 13.84-2.17 15.48-1.73Z" opacity="1" transform="matrix(1,0,0,1,0,0)" fill="#ffffff" class="wordmark-text-0" data-fill-palette-color="quaternary" id="text-0"></path></svg></g></svg></g></svg></g></svg></g><g></g></svg></g><defs></defs></svg><rect width="265.92776050739957" height="247.2" fill="none" stroke="none" visibility="hidden"></rect></g></svg></g></svg>